<?xml version="1.0" encoding="UTF-8" standalone="no"?>
<!-- Created with Inkscape (http://www.inkscape.org/) -->

<svg
   xmlns:osb="http://www.openswatchbook.org/uri/2009/osb"
   xmlns:dc="http://purl.org/dc/elements/1.1/"
   xmlns:cc="http://creativecommons.org/ns#"
   xmlns:rdf="http://www.w3.org/1999/02/22-rdf-syntax-ns#"
   xmlns:svg="http://www.w3.org/2000/svg"
   xmlns="http://www.w3.org/2000/svg"
   xmlns:sodipodi="http://sodipodi.sourceforge.net/DTD/sodipodi-0.dtd"
   xmlns:inkscape="http://www.inkscape.org/namespaces/inkscape"
   width="78.997025mm"
   height="51.971725mm"
   viewBox="0 0 78.997025 51.971725"
   version="1.1"
   id="svg8"
   inkscape:version="0.92.3 (2405546, 2018-03-11)"
   sodipodi:docname="blockpane-f.svg">
  <title
     id="title73">Block Pane</title>
  <defs
     id="defs2">
    <linearGradient
       id="linearGradient6168"
       osb:paint="solid">
      <stop
         style="stop-color:#800080;stop-opacity:1;"
         offset="0"
         id="stop6166" />
    </linearGradient>
    <inkscape:perspective
       sodipodi:type="inkscape:persp3d"
       inkscape:vp_x="-28.176584 : -1.9039284 : 1"
       inkscape:vp_y="0 : 999.99991 : 0"
       inkscape:vp_z="181.82338 : -1.9039284 : 1"
       inkscape:persp3d-origin="76.823406 : -51.403968 : 1"
       id="perspective3834" />
  </defs>
  <sodipodi:namedview
     id="base"
     pagecolor="#ffffff"
     bordercolor="#666666"
     borderopacity="1.0"
     inkscape:pageopacity="0.0"
     inkscape:pageshadow="2"
     inkscape:zoom="1.979899"
     inkscape:cx="170.71173"
     inkscape:cy="140.85709"
     inkscape:document-units="mm"
     inkscape:current-layer="text3852"
     showgrid="false"
     inkscape:window-width="1920"
     inkscape:window-height="1012"
     inkscape:window-x="0"
     inkscape:window-y="32"
     inkscape:window-maximized="1"
     inkscape:lockguides="false"
     fit-margin-top="0"
     fit-margin-left="0"
     fit-margin-right="0"
     fit-margin-bottom="0" />
  <metadata
     id="metadata5">
    <rdf:RDF>
      <cc:Work
         rdf:about="">
        <dc:format>image/svg+xml</dc:format>
        <dc:type
           rdf:resource="http://purl.org/dc/dcmitype/StillImage" />
        <dc:title>Block Pane</dc:title>
      </cc:Work>
    </rdf:RDF>
  </metadata>
  <g
     inkscape:label="Layer 1"
     inkscape:groupmode="layer"
     id="layer1"
     transform="translate(-13.229166,-8.7931681)">
    <g
       aria-label="[ block pane ]"
       style="font-style:normal;font-variant:normal;font-weight:normal;font-stretch:normal;font-size:10.58333302px;line-height:1.25;font-family:'Samyak Gujarati';-inkscape-font-specification:'Samyak Gujarati';letter-spacing:0px;word-spacing:0px;fill:#000000;fill-opacity:1;stroke:none;stroke-width:0.26458332"
       id="text3852">
      <path
         d="m 21.422178,53.761731 v -9.68375 h 2.06375 v 0.762 h -1.121833 v 8.15975 h 1.121833 v 0.762 z"
         style="fill:#800080"
         id="path31" />
      <path
         d="m 32.695412,48.829897 q 0,1.30175 -0.635,2.12725 -0.624417,0.8255 -1.735666,0.8255 -0.910167,0 -1.4605,-0.804333 v 0.677333 h -0.941917 v -7.577666 h 0.941917 v 2.69875 q 0.582083,-0.73025 1.513416,-0.73025 1.068917,0 1.693333,0.762 0.624417,0.751416 0.624417,2.021416 z m -2.402416,-2.021416 q -0.6985,0 -1.068917,0.5715 -0.359833,0.5715 -0.359833,1.481666 0,1.217084 0.41275,1.693334 0.41275,0.465666 0.973666,0.465666 0.423333,0 0.73025,-0.211666 0.3175,-0.211667 0.47625,-0.550334 0.15875,-0.34925 0.22225,-0.677333 0.07408,-0.338667 0.07408,-0.66675 0,-0.910167 -0.34925,-1.502833 -0.34925,-0.60325 -1.111249,-0.60325 z"
         style="fill:#668000"
         id="path33" />
      <path
         d="m 33.813442,51.655647 v -7.577666 h 0.941916 v 7.577666 z"
         style="fill:#668000"
         id="path35" />
      <path
         d="m 39.67297,51.507481 q -0.529166,0.275166 -1.259416,0.275166 -0.73025,0 -1.27,-0.275166 -0.529167,-0.275167 -0.804334,-0.719667 -0.264583,-0.455083 -0.391583,-0.92075 -0.116417,-0.465667 -0.116417,-0.9525 0,-1.291167 0.677334,-2.074333 0.687916,-0.79375 1.905,-0.79375 1.217083,0 1.894416,0.79375 0.687917,0.783166 0.687917,2.074333 0,0.486833 -0.127,0.9525 -0.116417,0.465667 -0.391583,0.92075 -0.264584,0.4445 -0.804334,0.719667 z m -0.05292,-4.116917 q -0.423334,-0.582083 -1.2065,-0.582083 -0.783167,0 -1.217084,0.582083 -0.423333,0.5715 -0.423333,1.524 0,0.381 0.07408,0.73025 0.08467,0.34925 0.254,0.677333 0.179917,0.3175 0.508,0.508 0.338667,0.1905 0.804334,0.1905 0.465666,0 0.79375,-0.1905 0.338666,-0.1905 0.508,-0.508 0.179916,-0.328083 0.254,-0.677333 0.08467,-0.34925 0.08467,-0.73025 0,-0.9525 -0.433916,-1.524 z"
         style="fill:#668000"
         id="path37" />
      <path
         d="m 41.785834,48.925147 q 0,-0.8255 0.232833,-1.418166 0.232833,-0.592667 0.613833,-0.889 0.391584,-0.306917 0.804334,-0.433917 0.41275,-0.137583 0.867833,-0.137583 1.8415,0 2.19075,1.735666 l -0.910167,0.137584 q -0.232833,-1.11125 -1.248833,-1.11125 -1.608667,0 -1.608667,2.106083 0,2.106083 1.55575,2.106083 1.17475,0 1.386417,-1.375833 l 0.899583,0.116417 q -0.148166,0.92075 -0.740833,1.471083 -0.582083,0.550333 -1.524,0.550333 -1.195917,0 -1.862667,-0.772583 -0.656166,-0.783167 -0.656166,-2.084917 z"
         style="fill:#668000"
         id="path39" />
      <path
         d="m 47.353163,51.655647 v -7.577666 h 0.941917 v 4.318 l 2.19075,-2.2225 h 1.217083 l -2.116667,2.032 2.328334,3.450166 h -1.153584 l -1.820333,-2.804583 -0.645583,0.635 v 2.169583 z"
         style="fill:#668000"
         id="path41" />
      <path
         d="m 60.972757,48.861647 q 0,1.259417 -0.645583,2.0955 -0.635,0.8255 -1.735667,0.8255 -0.878416,0 -1.42875,-0.6985 v 2.677584 h -0.941916 v -7.58825 h 0.941916 v 0.709083 q 0.455084,-0.836083 1.49225,-0.836083 1.11125,0 1.7145,0.772583 0.60325,0.772583 0.60325,2.042583 z m -2.402416,-2.053166 q -0.66675,0 -1.037167,0.582083 -0.370417,0.5715 -0.370417,1.55575 0,2.074333 1.375834,2.074333 0.73025,0 1.11125,-0.592666 0.381,-0.592667 0.381,-1.566334 0,-0.92075 -0.381,-1.481666 -0.370417,-0.5715 -1.0795,-0.5715 z"
         style="fill:#88aa00"
         id="path43" />
      <path
         d="m 64.302704,46.808481 q -0.677333,0 -0.98425,0.243416 -0.296333,0.232834 -0.465667,0.804334 l -0.889,-0.127 q 0.34925,-1.68275 2.465917,-1.68275 1.164167,0 1.640417,0.433916 0.486833,0.423334 0.486833,1.640417 v 2.413 q 0,0.582083 0.28575,1.121833 h -0.963083 q -0.137584,-0.296333 -0.179917,-0.677333 -0.963083,0.804333 -2.032,0.804333 -0.8255,0 -1.354667,-0.41275 -0.529166,-0.423333 -0.529166,-1.153583 0,-0.846667 0.79375,-1.354667 0.338666,-0.22225 1.4605,-0.381 1.121833,-0.169333 1.576916,-0.328083 v -0.232833 q 0,-1.11125 -1.312333,-1.11125 z m -0.402167,4.212166 q 1.7145,0 1.7145,-1.778 v -0.328083 q -0.34925,0.148167 -1.164166,0.275167 -0.804334,0.116416 -1.27,0.328083 -0.455084,0.201083 -0.455084,0.66675 0,0.836083 1.17475,0.836083 z"
         style="fill:#88aa00"
         id="path45" />
      <path
         d="m 68.003067,51.655647 v -5.482166 h 0.931334 v 0.762 q 0.423333,-0.889 1.661583,-0.889 1.862667,0 1.862667,1.989666 v 3.6195 h -0.941917 v -3.344333 q 0,-1.502833 -1.132417,-1.502833 -1.439333,0 -1.439333,1.8415 v 3.005666 z"
         style="fill:#88aa00"
         id="path47" />
      <path
         d="m 74.539764,49.136814 q 0.05292,0.85725 0.47625,1.375833 0.433917,0.508 1.195917,0.508 1.015999,0 1.449916,-1.132416 l 0.9525,0.116416 q -0.486833,1.778 -2.413,1.778 -1.23825,0 -1.926166,-0.73025 -0.687917,-0.740833 -0.687917,-2.106083 0,-1.322917 0.66675,-2.106083 0.677333,-0.79375 1.894417,-0.79375 1.100666,0 1.746249,0.66675 0.645584,0.656166 0.73025,1.80975 v 0.613833 z m 0.05292,-0.762 h 3.069166 q -0.127,-1.566333 -1.49225,-1.566333 -0.687916,0 -1.11125,0.4445 -0.41275,0.433916 -0.465666,1.121833 z"
         style="fill:#88aa00"
         id="path49" />
      <path
         d="m 84.937724,53.761731 h -2.06375 v -0.762 h 1.143 v -8.15975 h -1.143 v -0.762 h 2.06375 z"
         style="fill:#800080"
         id="path51" />
    </g>
    <g
       sodipodi:type="inkscape:box3d"
       id="g3836"
       inkscape:perspectiveID="#perspective3834"
       inkscape:corner0="1.0426124 : 0.1349037 : 0 : 1"
       inkscape:corner7="0.66844013 : 0.097502422 : 0.25 : 1">
      <path
         sodipodi:type="inkscape:box3dside"
         id="path3838"
         style="fill:#353564;fill-rule:evenodd;stroke:none;stroke-linejoin:round"
         inkscape:box3dsidetype="6"
         d="m 36.457338,20.85783 v 18.31051 l 17.294159,2.562632 V 25.417147 Z"
         points="36.457338,39.16834 53.751497,41.730972 53.751497,25.417147 36.457338,20.85783 " />
      <path
         sodipodi:type="inkscape:box3dside"
         id="path3848"
         style="fill:#e9e9ff;fill-rule:evenodd;stroke:none;stroke-linejoin:round"
         inkscape:box3dsidetype="11"
         d="M 53.751497,25.417147 67.150523,18.151586 V 37.647257 L 53.751497,41.730972 Z"
         points="67.150523,18.151586 67.150523,37.647257 53.751497,41.730972 53.751497,25.417147 " />
      <path
         sodipodi:type="inkscape:box3dside"
         id="path3840"
         style="fill:#4d4d9f;fill-rule:evenodd;stroke:none;stroke-linejoin:round"
         inkscape:box3dsidetype="5"
         d="m 36.457338,20.85783 11.528273,-9.376731 19.164912,6.670487 -13.399026,7.265561 z"
         points="47.985611,11.481099 67.150523,18.151586 53.751497,25.417147 36.457338,20.85783 " />
      <path
         sodipodi:type="inkscape:box3dside"
         id="path3846"
         style="fill:#88aa00;fill-rule:evenodd;stroke:none;stroke-linejoin:round"
         inkscape:box3dsidetype="13"
         d="m 36.457338,39.16834 11.528273,-5.270329 19.164912,3.749246 -13.399026,4.083715 z"
         points="47.985611,33.898011 67.150523,37.647257 53.751497,41.730972 36.457338,39.16834 " />
      <path
         sodipodi:type="inkscape:box3dside"
         id="path3844"
         style="fill:#800080;fill-opacity:0.71955716;fill-rule:evenodd;stroke:none;stroke-linejoin:round"
         inkscape:box3dsidetype="14"
         d="m 47.985611,11.481099 v 22.416912 l 19.164912,3.749246 V 18.151586 Z"
         points="47.985611,33.898011 67.150523,37.647257 67.150523,18.151586 47.985611,11.481099 " />
      <path
         sodipodi:type="inkscape:box3dside"
         id="path3842"
         style="fill:#445500;fill-rule:evenodd;stroke:none;stroke-linejoin:round"
         inkscape:box3dsidetype="3"
         d="M 36.457338,20.85783 47.985611,11.481099 V 33.898011 L 36.457338,39.16834 Z"
         points="47.985611,11.481099 47.985611,33.898011 36.457338,39.16834 36.457338,20.85783 " />
    </g>
  </g>
</svg>
